<svg xmlns="http://www.w3.org/2000/svg" viewBox="0 0 360 400" role="img" aria-labelledby="specitasTitle specitasDesc">
  <title id="specitasTitle">Specitas Group</title>
  <desc id="specitasDesc">Specitas Group logo with four-color mark and wordmark</desc>
  <defs>
    <linearGradient id="gTeal" x1="0%" y1="0%" x2="100%" y2="100%">
      <stop offset="0%" stop-color="#12d4e0"/>
      <stop offset="45%" stop-color="#0a7f8f"/>
      <stop offset="100%" stop-color="#050f14"/>
    </linearGradient>
    <linearGradient id="gPlum" x1="100%" y1="0%" x2="0%" y2="100%">
      <stop offset="0%" stop-color="#8a3a62"/>
      <stop offset="45%" stop-color="#4f2240"/>
      <stop offset="100%" stop-color="#10060c"/>
    </linearGradient>
    <linearGradient id="gGold" x1="0%" y1="100%" x2="100%" y2="0%">
      <stop offset="0%" stop-color="#e0bc4a"/>
      <stop offset="45%" stop-color="#9a7a22"/>
      <stop offset="100%" stop-color="#161208"/>
    </linearGradient>
    <linearGradient id="gGrey" x1="100%" y1="100%" x2="0%" y2="0%">
      <stop offset="0%" stop-color="#9a9a9a"/>
      <stop offset="45%" stop-color="#555555"/>
      <stop offset="100%" stop-color="#0e0e0e"/>
    </linearGradient>
  </defs>

  <g transform="translate(180 130) scale(1.2)">
    <path transform="rotate(0)" fill="url(#gTeal)" d="M-8 -8 H-52 C-64 -8 -70 -16 -68 -28 L-52 -58 C-48 -68 -38 -70 -30 -66 L-8 -48 C-2 -44 -2 -36 -2 -30 V-8 Z"/>
    <path transform="rotate(90)" fill="url(#gPlum)" d="M-8 -8 H-52 C-64 -8 -70 -16 -68 -28 L-52 -58 C-48 -68 -38 -70 -30 -66 L-8 -48 C-2 -44 -2 -36 -2 -30 V-8 Z"/>
    <path transform="rotate(180)" fill="url(#gGrey)" d="M-8 -8 H-52 C-64 -8 -70 -16 -68 -28 L-52 -58 C-48 -68 -38 -70 -30 -66 L-8 -48 C-2 -44 -2 -36 -2 -30 V-8 Z"/>
    <path transform="rotate(270)" fill="url(#gGold)" d="M-8 -8 H-52 C-64 -8 -70 -16 -68 -28 L-52 -58 C-48 -68 -38 -70 -30 -66 L-8 -48 C-2 -44 -2 -36 -2 -30 V-8 Z"/>
  </g>

  <text x="180" y="285" text-anchor="middle" font-family="Outfit, Arial, sans-serif" font-size="32" font-weight="500" letter-spacing="12" fill="#0b0d10">SPECITAS</text>
  <text x="180" y="322" text-anchor="middle" font-family="Outfit, Arial, sans-serif" font-size="18" font-weight="400" letter-spacing="20" fill="#6688B2">GROUP</text>
</svg>
